<svg width="583" height="1070" viewBox="0 0 583 1070" fill="none" xmlns="http://www.w3.org/2000/svg">
<g clip-path="url(#clip0_16_2)">
<rect width="583" height="1070" fill="#FCFCEC"/>
<rect x="-21" width="702" height="1159" fill="white"/>
<path d="M874.058 676.859C824.455 907.445 313.145 1207.92 -16.5725 1136.99C-346.29 1066.06 97.0341 790.961 146.637 560.375C196.241 329.789 35.5235 -156.815 674.416 15.9137C1067.45 160.851 923.661 446.273 874.058 676.859Z" fill="#FCFCEC"/>
<path d="M929.058 697.859C879.455 928.445 368.145 1228.92 38.4275 1157.99C-291.29 1087.06 152.034 811.961 201.637 581.375C251.241 350.789 90.5235 -135.815 729.416 36.9137C1122.45 181.851 978.661 467.273 929.058 697.859Z" fill="#F6F5C5"/>
<path d="M999.058 715.859C949.455 946.445 438.145 1246.92 108.427 1175.99C-221.29 1105.06 222.034 829.961 271.637 599.375C321.241 368.789 160.524 -117.815 799.416 54.9137C1192.45 199.851 1048.66 485.273 999.058 715.859Z" fill="#ECEFA3"/>
<path d="M1081.06 776.859C1031.45 1007.45 520.145 1307.92 190.427 1236.99C-139.29 1166.06 304.034 890.961 353.637 660.375C403.241 429.789 242.524 -56.8152 881.416 115.914C1274.45 260.851 1130.66 546.273 1081.06 776.859Z" fill="#D9E475"/>
<path d="M1167.06 853.859C1117.45 1084.45 606.145 1384.92 276.427 1313.99C-53.2901 1243.06 390.034 967.961 439.637 737.375C489.241 506.789 328.524 20.1848 967.416 192.914C1360.45 337.851 1216.66 623.273 1167.06 853.859Z" fill="#C5DA4B"/>
<path d="M1194.06 870.859C1144.45 1101.45 633.145 1401.92 303.427 1330.99C-26.2901 1260.06 417.034 984.961 466.637 754.375C516.241 523.789 355.524 37.1848 994.416 209.914C1387.45 354.851 1243.66 640.273 1194.06 870.859Z" fill="#AED035"/>
<path d="M1213.06 879.859C1163.45 1110.45 652.145 1410.92 322.427 1339.99C-7.29005 1269.06 436.034 993.961 485.637 763.375C535.241 532.789 374.524 46.1848 1013.42 218.914C1406.45 363.851 1262.66 649.273 1213.06 879.859Z" fill="#8EBD40"/>
<path d="M1232.06 879.859C1182.45 1110.45 671.145 1410.92 341.427 1339.99C11.7099 1269.06 455.034 993.961 504.637 763.375C554.241 532.789 393.524 46.1848 1032.42 218.914C1425.45 363.851 1281.66 649.273 1232.06 879.859Z" fill="#6D9C3F"/>
<path d="M1249.06 879.859C1199.45 1110.45 688.145 1410.92 358.427 1339.99C28.7099 1269.06 472.034 993.961 521.637 763.375C571.241 532.789 410.524 46.1848 1049.42 218.914C1442.45 363.851 1298.66 649.273 1249.06 879.859Z" fill="#4F7836"/>
<path d="M1267.06 891.859C1217.45 1122.45 706.145 1422.92 376.427 1351.99C46.7099 1281.06 490.034 1005.96 539.637 775.375C589.241 544.789 428.524 58.1848 1067.42 230.914C1460.45 375.851 1316.66 661.273 1267.06 891.859Z" fill="#355125"/>
</g>
<defs>
<clipPath id="clip0_16_2">
<rect width="583" height="1070" fill="white"/>
</clipPath>
</defs>
</svg>
